# Made in Blockbench 5.0.2
mtllib belt_end.mtl

o Top
v 0.3125 0.6875 0.5
v 0.3125 0.6875 -0.375
v 0.3125 0.625 0.5
v 0.3125 0.625 -0.375
v -0.3125 0.6875 -0.375
v -0.3125 0.6875 0.5
v -0.3125 0.625 -0.375
v -0.3125 0.625 0.5
vt 0.25 1
vt 0.25 0.125
vt 0.1875 0.125
vt 0.1875 1
vt 0.75 0.125
vt 0.75 1
vt 0.8125 1
vt 0.8125 0.125
vt 0.1875 1
vt 0.8125 1
vt 0.8125 0.125
vt 0.1875 0.125
vn 1 0 0
vn -1 0 0
vn 0 -1 0
usemtl m_5c491d5d-a943-3118-ab9f-9497e77f2bcd
f 3/4/1 4/3/1 2/2/1 1/1/1
f 7/8/2 8/7/2 6/6/2 5/5/2
f 7/12/3 4/11/3 3/10/3 8/9/3
o Top
v 0.4375 0.8125 0.5
v 0.4375 0.8125 -0.4375
v 0.4375 0.6875 0.5
v 0.4375 0.6875 -0.4375
v -0.4375 0.8125 -0.4375
v -0.4375 0.8125 0.5
v -0.4375 0.6875 -0.4375
v -0.4375 0.6875 0.5
vt 0.0625 0.0625
vt 0.9375 0.0625
vt 0.9375 0
vt 0.0625 0
vt 0.125 1
vt 0.125 0.0625
vt 0 0.0625
vt 0 1
vt 0.875 0.0625
vt 0.875 1
vt 1 1
vt 1 0.0625
vt 0.9375 0.0625
vt 0.0625 0.0625
vt 0.0625 1
vt 0.9375 1
vt 0.0625 1
vt 0.9375 1
vt 0.9375 0.0625
vt 0.0625 0.0625
vn 0 0 -1
vn 1 0 0
vn -1 0 0
vn 0 1 0
vn 0 -1 0
usemtl m_5c491d5d-a943-3118-ab9f-9497e77f2bcd
f 12/16/4 15/15/4 13/14/4 10/13/4
f 11/20/5 12/19/5 10/18/5 9/17/5
f 15/24/6 16/23/6 14/22/6 13/21/6
f 14/28/7 9/27/7 10/26/7 13/25/7
f 15/32/8 12/31/8 11/30/8 16/29/8
o Side
v 0.43125 0.75 -0.378125
v 0.43125 0.75 -0.503125
v 0.43125 0.25 -0.378125
v 0.43125 0.25 -0.503125
v -0.43125 0.75 -0.503125
v -0.43125 0.75 -0.378125
v -0.43125 0.25 -0.503125
v -0.43125 0.25 -0.378125
vt 0.0625 1
vt 0.9375 1
vt 0.9375 0.5
vt 0.0625 0.5
vt 0 1
vt 0.125 1
vt 0.125 0.5
vt 0 0.5
vt 0.0625 1
vt 0.9375 1
vt 0.9375 0.5
vt 0.0625 0.5
vt 0.875 1
vt 1 1
vt 1 0.5
vt 0.875 0.5
vt 0.9375 0
vt 0.0625 0
vt 0.0625 0.0625
vt 0.9375 0.0625
vt 0.9375 0.4375
vt 0.0625 0.4375
vt 0.0625 0.5
vt 0.9375 0.5
vn 0 0 -1
vn 1 0 0
vn 0 0 1
vn -1 0 0
vn 0 1 0
vn 0 -1 0
usemtl m_5c491d5d-a943-3118-ab9f-9497e77f2bcd
f 20/36/9 23/35/9 21/34/9 18/33/9
f 19/40/10 20/39/10 18/38/10 17/37/10
f 24/44/11 19/43/11 17/42/11 22/41/11
f 23/48/12 24/47/12 22/46/12 21/45/12
f 22/52/13 17/51/13 18/50/13 21/49/13
f 23/56/14 20/55/14 19/54/14 24/53/14
o Side
v 0.3125 0.625 -0.3125
v 0.3125 0.625 -0.375
v 0.3125 0.375 -0.3125
v 0.3125 0.375 -0.375
v -0.3125 0.625 -0.375
v -0.3125 0.625 -0.3125
v -0.3125 0.375 -0.375
v -0.3125 0.375 -0.3125
vt 0.1875 0.625
vt 0.25 0.625
vt 0.25 0.375
vt 0.1875 0.375
vt 0.1875 0.875
vt 0.8125 0.875
vt 0.8125 0.625
vt 0.1875 0.625
vt 0.75 0.625
vt 0.8125 0.625
vt 0.8125 0.375
vt 0.75 0.375
vn 1 0 0
vn 0 0 1
vn -1 0 0
usemtl m_5c491d5d-a943-3118-ab9f-9497e77f2bcd
f 27/60/15 28/59/15 26/58/15 25/57/15
f 32/64/16 27/63/16 25/62/16 30/61/16
f 31/68/17 32/67/17 30/66/17 29/65/17
o Bottom
v 0.4375 0.3125 0.5
v 0.4375 0.3125 -0.4375
v 0.4375 0.1875 0.5
v 0.4375 0.1875 -0.4375
v -0.4375 0.3125 -0.4375
v -0.4375 0.3125 0.5
v -0.4375 0.1875 -0.4375
v -0.4375 0.1875 0.5
vt 0.0625 1
vt 0.9375 1
vt 0.9375 0.9375
vt 0.0625 0.9375
vt 0 0
vt 0 0.9375
vt 0.125 0.9375
vt 0.125 0
vt 1 0.9375
vt 1 0
vt 0.875 0
vt 0.875 0.9375
vt 0.0625 0.9375
vt 0.9375 0.9375
vt 0.9375 0
vt 0.0625 0
vt 0.9375 0
vt 0.0625 0
vt 0.0625 0.9375
vt 0.9375 0.9375
vn 0 0 -1
vn 1 0 0
vn -1 0 0
vn 0 1 0
vn 0 -1 0
usemtl m_937561a1-7d54-e1db-fdae-539fab0930e9
f 36/72/18 39/71/18 37/70/18 34/69/18
f 35/76/19 36/75/19 34/74/19 33/73/19
f 39/80/20 40/79/20 38/78/20 37/77/20
f 38/84/21 33/83/21 34/82/21 37/81/21
f 39/88/22 36/87/22 35/86/22 40/85/22
o Bottom
v 0.3125 0.375 0.5
v 0.3125 0.375 -0.375
v 0.3125 0.3125 0.5
v 0.3125 0.3125 -0.375
v -0.3125 0.375 -0.375
v -0.3125 0.375 0.5
v -0.3125 0.3125 -0.375
v -0.3125 0.3125 0.5
vt 0.75 0
vt 0.75 0.875
vt 0.8125 0.875
vt 0.8125 0
vt 0.25 0.875
vt 0.25 0
vt 0.1875 0
vt 0.1875 0.875
vt 0.1875 0.875
vt 0.8125 0.875
vt 0.8125 0
vt 0.1875 0
vn 1 0 0
vn -1 0 0
vn 0 1 0
usemtl m_937561a1-7d54-e1db-fdae-539fab0930e9
f 43/92/23 44/91/23 42/90/23 41/89/23
f 47/96/24 48/95/24 46/94/24 45/93/24
f 46/100/25 41/99/25 42/98/25 45/97/25