# Made in Blockbench 5.0.2
mtllib belt_start.mtl

o Top
v 0.4375 0.8125 0.4375
v 0.4375 0.8125 -0.5
v 0.4375 0.6875 0.4375
v 0.4375 0.6875 -0.5
v -0.4375 0.8125 -0.5
v -0.4375 0.8125 0.4375
v -0.4375 0.6875 -0.5
v -0.4375 0.6875 0.4375
vt 0.125 0.9375
vt 0.125 0
vt 0 0
vt 0 0.9375
vt 0.9375 0.9375
vt 0.0625 0.9375
vt 0.0625 1
vt 0.9375 1
vt 0.875 0
vt 0.875 0.9375
vt 1 0.9375
vt 1 0
vt 0.9375 0
vt 0.0625 0
vt 0.0625 0.9375
vt 0.9375 0.9375
vt 0.0625 0.9375
vt 0.9375 0.9375
vt 0.9375 0
vt 0.0625 0
vn 1 0 0
vn 0 0 1
vn -1 0 0
vn 0 1 0
vn 0 -1 0
usemtl m_b6e34d10-35f1-cd03-9d70-5aa8bf77bc00
f 3/4/1 4/3/1 2/2/1 1/1/1
f 8/8/2 3/7/2 1/6/2 6/5/2
f 7/12/3 8/11/3 6/10/3 5/9/3
f 6/16/4 1/15/4 2/14/4 5/13/4
f 7/20/5 4/19/5 3/18/5 8/17/5
o Top
v 0.3125 0.6875 0.375
v 0.3125 0.6875 -0.5
v 0.3125 0.625 0.375
v 0.3125 0.625 -0.5
v -0.3125 0.6875 -0.5
v -0.3125 0.6875 0.375
v -0.3125 0.625 -0.5
v -0.3125 0.625 0.375
vt 0.25 0.875
vt 0.25 0
vt 0.1875 0
vt 0.1875 0.875
vt 0.75 0
vt 0.75 0.875
vt 0.8125 0.875
vt 0.8125 0
vt 0.1875 0.875
vt 0.8125 0.875
vt 0.8125 0
vt 0.1875 0
vn 1 0 0
vn -1 0 0
vn 0 -1 0
usemtl m_b6e34d10-35f1-cd03-9d70-5aa8bf77bc00
f 11/24/6 12/23/6 10/22/6 9/21/6
f 15/28/7 16/27/7 14/26/7 13/25/7
f 15/32/8 12/31/8 11/30/8 16/29/8
o Side
v 0.43125 0.75 0.503125
v 0.43125 0.75 0.37812500000000004
v 0.43125 0.25 0.503125
v 0.43125 0.25 0.37812500000000004
v -0.43125 0.75 0.37812500000000004
v -0.43125 0.75 0.503125
v -0.43125 0.25 0.37812500000000004
v -0.43125 0.25 0.503125
vt 0.9375 0
vt 0.0625 0
vt 0.0625 0.5
vt 0.9375 0.5
vt 0.125 0
vt 0 0
vt 0 0.5
vt 0.125 0.5
vt 0.9375 0
vt 0.0625 0
vt 0.0625 0.5
vt 0.9375 0.5
vt 1 0
vt 0.875 0
vt 0.875 0.5
vt 1 0.5
vt 0.9375 0.9375
vt 0.0625 0.9375
vt 0.0625 1
vt 0.9375 1
vt 0.9375 0.5
vt 0.0625 0.5
vt 0.0625 0.5625
vt 0.9375 0.5625
vn 0 0 -1
vn 1 0 0
vn 0 0 1
vn -1 0 0
vn 0 1 0
vn 0 -1 0
usemtl m_b6e34d10-35f1-cd03-9d70-5aa8bf77bc00
f 20/36/9 23/35/9 21/34/9 18/33/9
f 19/40/10 20/39/10 18/38/10 17/37/10
f 24/44/11 19/43/11 17/42/11 22/41/11
f 23/48/12 24/47/12 22/46/12 21/45/12
f 22/52/13 17/51/13 18/50/13 21/49/13
f 23/56/14 20/55/14 19/54/14 24/53/14
o Side
v 0.3125 0.625 0.375
v 0.3125 0.625 0.3125
v 0.3125 0.375 0.375
v 0.3125 0.375 0.3125
v -0.3125 0.625 0.3125
v -0.3125 0.625 0.375
v -0.3125 0.375 0.3125
v -0.3125 0.375 0.375
vt 0.8125 0.125
vt 0.1875 0.125
vt 0.1875 0.375
vt 0.8125 0.375
vt 0.8125 0.125
vt 0.75 0.125
vt 0.75 0.375
vt 0.8125 0.375
vt 0.25 0.125
vt 0.1875 0.125
vt 0.1875 0.375
vt 0.25 0.375
vn 0 0 -1
vn 1 0 0
vn -1 0 0
usemtl m_b6e34d10-35f1-cd03-9d70-5aa8bf77bc00
f 28/60/15 31/59/15 29/58/15 26/57/15
f 27/64/16 28/63/16 26/62/16 25/61/16
f 31/68/17 32/67/17 30/66/17 29/65/17
o Bottom
v 0.4375 0.3125 0.4375
v 0.4375 0.3125 -0.5
v 0.4375 0.1875 0.4375
v 0.4375 0.1875 -0.5
v -0.4375 0.3125 -0.5
v -0.4375 0.3125 0.4375
v -0.4375 0.1875 -0.5
v -0.4375 0.1875 0.4375
vt 0 0.0625
vt 0 1
vt 0.125 1
vt 0.125 0.0625
vt 0.9375 0
vt 0.0625 0
vt 0.0625 0.0625
vt 0.9375 0.0625
vt 1 1
vt 1 0.0625
vt 0.875 0.0625
vt 0.875 1
vt 0.0625 1
vt 0.9375 1
vt 0.9375 0.0625
vt 0.0625 0.0625
vt 0.9375 0.0625
vt 0.0625 0.0625
vt 0.0625 1
vt 0.9375 1
vn 1 0 0
vn 0 0 1
vn -1 0 0
vn 0 1 0
vn 0 -1 0
usemtl m_a048d5b8-c474-230f-4fc2-2ab95e17fa23
f 35/72/18 36/71/18 34/70/18 33/69/18
f 40/76/19 35/75/19 33/74/19 38/73/19
f 39/80/20 40/79/20 38/78/20 37/77/20
f 38/84/21 33/83/21 34/82/21 37/81/21
f 39/88/22 36/87/22 35/86/22 40/85/22
o Bottom
v 0.3125 0.375 0.375
v 0.3125 0.375 -0.5
v 0.3125 0.3125 0.375
v 0.3125 0.3125 -0.5
v -0.3125 0.375 -0.5
v -0.3125 0.375 0.375
v -0.3125 0.3125 -0.5
v -0.3125 0.3125 0.375
vt 0.1875 0.125
vt 0.1875 1
vt 0.25 1
vt 0.25 0.125
vt 0.8125 1
vt 0.8125 0.125
vt 0.75 0.125
vt 0.75 1
vt 0.1875 1
vt 0.8125 1
vt 0.8125 0.125
vt 0.1875 0.125
vn 1 0 0
vn -1 0 0
vn 0 1 0
usemtl m_a048d5b8-c474-230f-4fc2-2ab95e17fa23
f 43/92/23 44/91/23 42/90/23 41/89/23
f 47/96/24 48/95/24 46/94/24 45/93/24
f 46/100/25 41/99/25 42/98/25 45/97/25